<?xml version="1.0" encoding="UTF-8" standalone="no"?>
<!DOCTYPE svg PUBLIC "-//W3C//DTD SVG 1.1//EN" "http://www.w3.org/Graphics/SVG/1.1/DTD/svg11.dtd">
<!-- Created with Vectornator (http://vectornator.io/) -->
<svg height="100%" stroke-miterlimit="10" style="fill-rule:nonzero;clip-rule:evenodd;stroke-linecap:round;stroke-linejoin:round;" version="1.1" viewBox="0 0 1920 1080" width="100%" xml:space="preserve" xmlns="http://www.w3.org/2000/svg" xmlns:vectornator="http://vectornator.io" xmlns:xlink="http://www.w3.org/1999/xlink">
<defs/>
<clipPath id="ArtboardFrame">
<rect height="1080" width="1920" x="0" y="0"/>
</clipPath>
<g clip-path="url(#ArtboardFrame)" id="Layer-1" vectornator:layerName="Layer 1">
<path d="M234.366 982.852C234.366 929.199 289.45 885.705 357.399 885.705C425.349 885.705 480.432 929.199 480.432 982.852C480.432 1036.51 425.349 1080 357.399 1080C289.45 1080 234.366 1036.51 234.366 982.852ZM111.334 885.705C111.334 832.051 166.417 788.557 234.366 788.557C302.316 788.557 357.399 832.051 357.399 885.705C357.399 939.358 302.316 982.852 234.366 982.852C166.417 982.852 111.334 939.358 111.334 885.705ZM602.221 885.705C602.221 832.051 657.305 788.557 725.254 788.557C793.203 788.557 848.287 832.051 848.287 885.705C848.287 939.358 793.203 982.852 725.254 982.852C657.305 982.852 602.221 939.358 602.221 885.705ZM704.447 788.557C704.447 734.904 759.531 691.409 827.48 691.409C895.429 691.409 950.513 734.904 950.513 788.557C950.513 842.21 895.429 885.705 827.48 885.705C759.531 885.705 704.447 842.21 704.447 788.557ZM760.625 806.318C760.625 752.665 815.709 709.171 883.658 709.171C951.607 709.171 1006.69 752.665 1006.69 806.318C1006.69 859.971 951.607 903.466 883.658 903.466C815.709 903.466 760.625 859.971 760.625 806.318ZM1216.63 872.62C1216.63 818.966 1271.71 775.472 1339.66 775.472C1407.61 775.472 1462.69 818.966 1462.69 872.62C1462.69 926.273 1407.61 969.767 1339.66 969.767C1271.71 969.767 1216.63 926.273 1216.63 872.62ZM1339.66 919.342C1339.66 865.689 1394.74 822.194 1462.69 822.194C1530.64 822.194 1585.73 865.689 1585.73 919.342C1585.73 972.995 1530.64 1016.49 1462.69 1016.49C1394.74 1016.49 1339.66 972.995 1339.66 919.342ZM816.804 709.171C816.804 680.016 846.735 656.382 883.658 656.382C920.581 656.382 950.513 680.016 950.513 709.171C950.513 738.325 920.581 761.959 883.658 761.959C846.735 761.959 816.804 738.325 816.804 709.171ZM966.796 788.557C966.796 771.159 984.657 757.055 1006.69 757.055C1028.72 757.055 1046.59 771.159 1046.59 788.557C1046.59 805.955 1028.72 820.059 1006.69 820.059C984.657 820.059 966.796 805.955 966.796 788.557ZM1259.87 788.557C1259.87 771.159 1277.73 757.055 1299.77 757.055C1321.8 757.055 1339.66 771.159 1339.66 788.557C1339.66 805.955 1321.8 820.059 1299.77 820.059C1277.73 820.059 1259.87 805.955 1259.87 788.557ZM1299.77 776.423C1299.77 759.025 1317.63 744.922 1339.66 744.922C1361.69 744.922 1379.56 759.025 1379.56 776.423C1379.56 793.821 1361.69 807.925 1339.66 807.925C1317.63 807.925 1299.77 793.821 1299.77 776.423ZM624.656 813.992C624.656 796.594 642.518 782.49 664.552 782.49C686.585 782.49 704.447 796.594 704.447 813.992C704.447 831.39 686.585 845.494 664.552 845.494C642.518 845.494 624.656 831.39 624.656 813.992ZM522.43 860.714C522.43 843.316 540.292 829.212 562.326 829.212C584.359 829.212 602.221 843.316 602.221 860.714C602.221 878.112 584.359 892.216 562.326 892.216C540.292 892.216 522.43 878.112 522.43 860.714ZM-64.1626 916.978C-64.1626 887.824-34.2307 864.189 2.69208 864.189C39.6149 864.189 69.5467 887.824 69.5467 916.978C69.5467 946.133 39.6149 969.767 2.69208 969.767C-34.2307 969.767-64.1626 946.133-64.1626 916.978ZM1149.77 855.831C1149.77 826.677 1179.71 803.042 1216.63 803.042C1253.55 803.042 1283.48 826.677 1283.48 855.831C1283.48 884.986 1253.55 908.62 1216.63 908.62C1179.71 908.62 1149.77 884.986 1149.77 855.831ZM1518.87 859.107C1518.87 829.953 1548.8 806.318 1585.73 806.318C1622.65 806.318 1652.58 829.953 1652.58 859.107C1652.58 888.262 1622.65 911.896 1585.73 911.896C1548.8 911.896 1518.87 888.262 1518.87 859.107ZM1585.73 829.212C1585.73 800.058 1615.66 776.423 1652.58 776.423C1689.5 776.423 1719.44 800.058 1719.44 829.212C1719.44 858.367 1689.5 882.001 1652.58 882.001C1615.66 882.001 1585.73 858.367 1585.73 829.212ZM1652.58 788.557C1652.58 759.402 1682.51 735.768 1719.44 735.768C1756.36 735.768 1786.29 759.402 1786.29 788.557C1786.29 817.711 1756.36 841.346 1719.44 841.346C1682.51 841.346 1652.58 817.711 1652.58 788.557ZM1694.59 841.346C1694.59 812.191 1724.52 788.557 1761.44 788.557C1770.86 788.557 1799.94 788.654 1808.07 791.43C1831.8 799.535 1828.3 819.63 1828.3 841.346C1828.3 870.5 1798.36 894.135 1761.44 894.135C1724.52 894.135 1694.59 870.5 1694.59 841.346ZM1786.29 835.279C1786.29 806.125 1816.22 782.49 1853.15 782.49C1890.07 782.49 1920 806.125 1920 835.279C1920 864.434 1890.07 888.068 1853.15 888.068C1816.22 888.068 1786.29 864.434 1786.29 835.279ZM360.696 919.342C360.696 884.266 399.948 855.831 448.368 855.831C496.787 855.831 536.039 884.266 536.039 919.342C536.039 954.418 496.787 982.852 448.368 982.852C399.948 982.852 360.696 954.418 360.696 919.342ZM23.6619 889.408C23.6619 854.332 62.9138 825.897 111.334 825.897C159.753 825.897 199.005 854.332 199.005 889.408C199.005 924.484 159.753 952.919 111.334 952.919C62.9138 952.919 23.6619 924.484 23.6619 889.408ZM480.432 885.705C480.432 859.901 522.712 838.982 574.868 838.982C627.023 838.982 669.303 859.901 669.303 885.705C669.303 911.509 627.023 932.427 574.868 932.427C522.712 932.427 480.432 911.509 480.432 885.705ZM912.256 835.279C912.256 809.475 954.536 788.557 1006.69 788.557C1058.85 788.557 1101.13 809.475 1101.13 835.279C1101.13 861.083 1058.85 882.001 1006.69 882.001C954.536 882.001 912.256 861.083 912.256 835.279ZM1046.59 838.982C1046.59 806.355 1078.62 779.905 1118.13 779.905C1157.64 779.905 1189.67 806.355 1189.67 838.982C1189.67 871.61 1157.64 898.06 1118.13 898.06C1078.62 898.06 1046.59 871.61 1046.59 838.982ZM277.609 832.688C277.609 815.29 295.47 801.186 317.504 801.186C339.538 801.186 357.399 815.29 357.399 832.688C357.399 850.086 339.538 864.189 317.504 864.189C295.47 864.189 277.609 850.086 277.609 832.688ZM237.713 797.711C237.713 780.313 255.575 766.209 277.609 766.209C299.642 766.209 317.504 780.313 317.504 797.711C317.504 815.109 299.642 829.212 277.609 829.212C255.575 829.212 237.713 815.109 237.713 797.711ZM176.005 782.49C176.005 765.092 193.866 750.988 215.9 750.988C237.934 750.988 255.795 765.092 255.795 782.49C255.795 799.888 237.934 813.992 215.9 813.992C193.866 813.992 176.005 799.888 176.005 782.49ZM154.576 813.992C154.576 796.594 172.437 782.49 194.471 782.49C216.505 782.49 234.366 796.594 234.366 813.992C234.366 831.39 216.505 845.494 194.471 845.494C172.437 845.494 154.576 831.39 154.576 813.992Z" fill="#ae2121" fill-rule="nonzero" opacity="1" stroke="none" vectornator:layerName="Curve 1"/>
<path d="M532.223 850.546L1920 850.546L1920 1083.6L532.223 1083.6L532.223 850.546Z" fill="#ae2121" fill-rule="nonzero" opacity="1" stroke="none" vectornator:layerName="Rectangle 1"/>
<path d="M0 933.306L693.888 933.306L693.888 1080L0 1080L0 933.306Z" fill="#ae2121" fill-rule="nonzero" opacity="1" stroke="none" vectornator:layerName="Rectangle 2"/>
</g>
</svg>
