<?xml version="1.0" encoding="UTF-8" standalone="no"?>
<!DOCTYPE svg PUBLIC "-//W3C//DTD SVG 1.1//EN" "http://www.w3.org/Graphics/SVG/1.1/DTD/svg11.dtd">
<!-- Created with Vectornator (http://vectornator.io/) -->
<svg height="100%" stroke-miterlimit="10" style="fill-rule:nonzero;clip-rule:evenodd;stroke-linecap:round;stroke-linejoin:round;" version="1.1" viewBox="24.8217 314.475 350.712 195.071" width="100%" xml:space="preserve" xmlns="http://www.w3.org/2000/svg" xmlns:vectornator="http://vectornator.io" xmlns:xlink="http://www.w3.org/1999/xlink">
<defs/>
<clipPath id="ArtboardFrame">
<rect height="195.071" width="350.712" x="24.8217" y="314.475"/>
</clipPath>
<g clip-path="url(#ArtboardFrame)" id="Layer" vectornator:layerName="Layer">
<g opacity="1" vectornator:layerName="Group 9">
<g opacity="1" vectornator:layerName="Group 7">
<path d="M106.995 411.383C106.995 389.019 125.41 370.889 148.126 370.889C170.842 370.889 189.257 389.019 189.257 411.383C189.257 433.748 170.842 451.878 148.126 451.878C125.41 451.878 106.995 433.748 106.995 411.383Z" fill="#73b6ff" fill-rule="nonzero" opacity="1" stroke="none" vectornator:layerName="Oval 1"/>
<path d="M209.61 434.493C209.61 412.128 228.025 393.998 250.741 393.998C273.457 393.998 291.872 412.128 291.872 434.493C291.872 456.858 273.457 474.988 250.741 474.988C228.025 474.988 209.61 456.858 209.61 434.493Z" fill="#73b6ff" fill-rule="nonzero" opacity="1" stroke="none" vectornator:layerName="Oval 8"/>
<path d="M133.497 451.878C133.497 429.865 151.248 412.019 173.144 412.019C195.04 412.019 212.791 429.865 212.791 451.878C212.791 473.892 195.04 491.737 173.144 491.737C151.248 491.737 133.497 473.892 133.497 451.878Z" fill="#73b6ff" fill-rule="nonzero" opacity="1" stroke="none" vectornator:layerName="Oval 2"/>
<path d="M173.144 403.115C173.144 387.19 186.101 374.281 202.084 374.281C218.067 374.281 231.024 387.19 231.024 403.115C231.024 419.039 218.067 431.949 202.084 431.949C186.101 431.949 173.144 419.039 173.144 403.115Z" fill="#73b6ff" fill-rule="nonzero" opacity="1" stroke="none" vectornator:layerName="Oval 3"/>
<path d="M321.682 389.122C321.682 365.469 301.387 346.295 276.353 346.295C251.318 346.295 231.024 365.469 231.024 389.122C231.024 412.775 251.318 431.949 276.353 431.949C301.387 431.949 321.682 412.775 321.682 389.122Z" fill="#73b6ff" fill-rule="nonzero" opacity="1" stroke="none" vectornator:layerName="Oval 9"/>
<path d="M211.307 393.998C211.307 384.397 220.134 376.613 231.024 376.613C241.914 376.613 250.741 384.397 250.741 393.998C250.741 403.6 241.914 411.383 231.024 411.383C220.134 411.383 211.307 403.6 211.307 393.998Z" fill="#73b6ff" fill-rule="nonzero" opacity="1" stroke="none" vectornator:layerName="Oval 4"/>
<path d="M30.9581 431.631C30.9581 420.449 39.9894 411.383 51.1301 411.383C62.2708 411.383 71.3022 420.449 71.3022 431.631C71.3022 442.813 62.2708 451.878 51.1301 451.878C39.9894 451.878 30.9581 442.813 30.9581 431.631Z" fill="#73b6ff" fill-rule="nonzero" opacity="1" stroke="none" vectornator:layerName="Oval 10"/>
<path d="M42.7627 460.783C42.7627 433.852 68.7461 412.019 100.798 412.019C132.85 412.019 158.834 433.852 158.834 460.783C158.834 487.714 132.85 509.546 100.798 509.546C68.7461 509.546 42.7627 487.714 42.7627 460.783Z" fill="#73b6ff" fill-rule="nonzero" opacity="1" stroke="none" vectornator:layerName="Oval 5"/>
<path d="M184.169 451.878C184.169 424.947 208.279 403.115 238.02 403.115C267.762 403.115 291.872 424.947 291.872 451.878C291.872 478.81 267.762 500.642 238.02 500.642C208.279 500.642 184.169 478.81 184.169 451.878Z" fill="#73b6ff" fill-rule="nonzero" opacity="1" stroke="none" vectornator:layerName="Oval 6"/>
<path d="M267.83 451.878C267.83 424.947 291.94 403.115 321.682 403.115C351.423 403.115 375.533 424.947 375.533 451.878C375.533 478.81 351.423 500.642 321.682 500.642C291.94 500.642 267.83 478.81 267.83 451.878Z" fill="#73b6ff" fill-rule="nonzero" opacity="1" stroke="none" vectornator:layerName="Oval 7"/>
</g>
<g opacity="1" vectornator:layerName="Group 6">
<path d="M100.362 389.026C100.362 363.41 118.656 342.644 141.223 342.644C163.791 342.644 182.085 363.41 182.085 389.026C182.085 414.642 163.791 435.408 141.223 435.408C118.656 435.408 100.362 414.642 100.362 389.026Z" fill="#ffffff" fill-rule="nonzero" opacity="1" stroke="none" vectornator:layerName="Oval 1"/>
<path d="M202.306 415.495C202.306 389.879 220.6 369.113 243.168 369.113C265.735 369.113 284.029 389.879 284.029 415.495C284.029 441.111 265.735 461.877 243.168 461.877C220.6 461.877 202.306 441.111 202.306 415.495Z" fill="#ffffff" fill-rule="nonzero" opacity="1" stroke="none" vectornator:layerName="Oval 8"/>
<path d="M126.69 435.408C126.69 410.194 144.324 389.754 166.078 389.754C187.831 389.754 205.465 410.194 205.465 435.408C205.465 460.621 187.831 481.061 166.078 481.061C144.324 481.061 126.69 460.621 126.69 435.408Z" fill="#ffffff" fill-rule="nonzero" opacity="1" stroke="none" vectornator:layerName="Oval 2"/>
<path d="M166.078 379.555C166.078 361.316 178.95 346.53 194.828 346.53C210.707 346.53 223.579 361.316 223.579 379.555C223.579 397.795 210.707 412.581 194.828 412.581C178.95 412.581 166.078 397.795 166.078 379.555Z" fill="#ffffff" fill-rule="nonzero" opacity="1" stroke="none" vectornator:layerName="Oval 3"/>
<path d="M313.644 363.528C313.644 336.437 293.482 314.475 268.611 314.475C243.741 314.475 223.579 336.437 223.579 363.528C223.579 390.619 243.741 412.581 268.611 412.581C293.482 412.581 313.644 390.619 313.644 363.528Z" fill="#ffffff" fill-rule="nonzero" opacity="1" stroke="none" vectornator:layerName="Oval 9"/>
<path d="M203.991 369.113C203.991 358.116 212.761 349.201 223.579 349.201C234.397 349.201 243.168 358.116 243.168 369.113C243.168 380.111 234.397 389.026 223.579 389.026C212.761 389.026 203.991 380.111 203.991 369.113Z" fill="#ffffff" fill-rule="nonzero" opacity="1" stroke="none" vectornator:layerName="Oval 4"/>
<path d="M24.8217 412.217C24.8217 399.409 33.794 389.026 44.8618 389.026C55.9297 389.026 64.9019 399.409 64.9019 412.217C64.9019 425.025 55.9297 435.408 44.8618 435.408C33.794 435.408 24.8217 425.025 24.8217 412.217Z" fill="#ffffff" fill-rule="nonzero" opacity="1" stroke="none" vectornator:layerName="Oval 10"/>
<path d="M36.5491 445.607C36.5491 414.76 62.3626 389.754 94.205 389.754C126.048 389.754 151.861 414.76 151.861 445.607C151.861 476.453 126.048 501.459 94.205 501.459C62.3626 501.459 36.5491 476.453 36.5491 445.607Z" fill="#ffffff" fill-rule="nonzero" opacity="1" stroke="none" vectornator:layerName="Oval 5"/>
<path d="M177.03 435.408C177.03 404.561 200.983 379.555 230.53 379.555C260.077 379.555 284.029 404.561 284.029 435.408C284.029 466.254 260.077 491.26 230.53 491.26C200.983 491.26 177.03 466.254 177.03 435.408Z" fill="#ffffff" fill-rule="nonzero" opacity="1" stroke="none" vectornator:layerName="Oval 6"/>
<path d="M260.144 435.408C260.144 404.561 284.097 379.555 313.644 379.555C343.191 379.555 367.143 404.561 367.143 435.408C367.143 466.254 343.191 491.26 313.644 491.26C284.097 491.26 260.144 466.254 260.144 435.408Z" fill="#ffffff" fill-rule="nonzero" opacity="1" stroke="none" vectornator:layerName="Oval 7"/>
</g>
</g>
</g>
</svg>
